<?xml version="1.0" encoding="utf-8"?>
<svg viewBox="0 0 172.745 74.283" xmlns="http://www.w3.org/2000/svg">
  <defs>
    <linearGradient gradientUnits="userSpaceOnUse" x1="114.621" y1="128.34" x2="114.621" y2="148.288" id="gradient-1" gradientTransform="matrix(0.02219, -0.761816, 1.015518, 0.084656, -31.766082, 220.20462)">
      <stop offset="0" style="stop-color: rgb(88, 211, 43);"/>
      <stop offset="0.523" style="stop-color: rgb(186, 61, 163);"/>
      <stop offset="1" style="stop-color: rgb(38, 164, 210);"/>
    </linearGradient>
  </defs>
  <path d="M 99.557 148.142 Q 99.957 146.173 100.327 144.294 Q 100.46 143.495 100.623 142.629 Q 100.786 141.763 100.926 140.912 Q 101.067 140.061 101.193 139.269 Q 101.318 138.477 101.392 137.826 Q 102.236 137.56 103.213 137.434 Q 104.19 137.308 105.152 137.308 Q 105.729 137.308 106.106 137.441 Q 106.484 137.575 106.698 137.819 Q 106.913 138.063 107.002 138.389 Q 107.09 138.714 107.09 139.114 Q 107.09 139.706 106.883 140.276 Q 106.676 140.845 106.328 141.356 Q 105.98 141.867 105.529 142.288 Q 105.078 142.71 104.56 142.977 Q 104.826 143.569 105.129 144.272 Q 105.433 144.975 105.699 145.611 Q 105.995 146.351 106.306 147.091 L 104.012 147.89 Q 103.716 146.869 103.479 145.966 Q 103.376 145.596 103.272 145.204 Q 103.168 144.812 103.08 144.464 Q 102.991 144.116 102.932 143.85 Q 102.872 143.583 102.858 143.435 L 102.665 143.495 Q 102.576 143.968 102.451 144.649 Q 102.325 145.33 102.221 145.966 Q 102.088 146.721 101.955 147.52 Z M 103.035 141.719 Q 103.316 141.689 103.723 141.482 Q 104.13 141.275 104.5 140.986 Q 104.87 140.697 105.137 140.387 Q 105.403 140.076 105.403 139.839 Q 105.403 139.676 105.3 139.58 Q 105.196 139.484 105.011 139.432 Q 104.826 139.38 104.604 139.365 Q 104.382 139.351 104.145 139.351 Q 103.982 139.351 103.812 139.358 Q 103.642 139.365 103.509 139.365 Z" transform="matrix(6.188067, -0.309551, 0.285808, 5.177351, -650.825073, -666.719421)" style="fill: url(#gradient-1); white-space: pre;"/>
  <path d="M 112.625 145.241 Q 112.418 146.085 112.041 146.677 Q 111.663 147.269 111.153 147.653 Q 110.642 148.038 110.065 148.216 Q 109.488 148.393 108.91 148.393 Q 108.57 148.393 108.215 148.282 Q 107.86 148.171 107.578 147.949 Q 107.297 147.727 107.112 147.387 Q 106.927 147.047 106.927 146.588 Q 106.927 146.529 106.927 146.469 Q 106.927 146.41 106.942 146.351 Q 107.001 145.744 107.134 144.886 Q 107.268 144.027 107.416 143.095 Q 107.564 142.163 107.741 141.223 Q 107.919 140.283 108.059 139.513 Q 108.2 138.744 108.304 138.233 Q 108.407 137.723 108.437 137.604 Q 108.748 137.575 109.177 137.53 Q 109.606 137.486 109.976 137.456 Q 110.435 137.412 110.879 137.367 Q 110.494 139.158 110.198 140.609 Q 110.065 141.23 109.939 141.852 Q 109.813 142.473 109.702 142.991 Q 109.591 143.509 109.51 143.887 Q 109.428 144.264 109.377 144.501 Q 109.325 144.738 109.258 145.1 Q 109.192 145.463 109.192 145.759 Q 109.192 145.996 109.31 146.151 Q 109.428 146.307 109.606 146.307 Q 109.858 146.307 110.02 146.107 Q 110.183 145.907 110.294 145.626 Q 110.405 145.345 110.457 145.056 Q 110.509 144.767 110.553 144.605 Q 110.642 144.175 110.753 143.65 Q 110.864 143.125 110.975 142.555 Q 111.086 141.985 111.197 141.393 Q 111.308 140.801 111.412 140.239 Q 111.663 138.936 111.9 137.545 L 114.15 137.397 Q 114.15 137.397 114.076 137.782 Q 114.002 138.167 113.883 138.803 Q 113.765 139.439 113.624 140.253 Q 113.484 141.067 113.306 141.948 Q 113.128 142.829 112.958 143.68 Q 112.788 144.531 112.625 145.241 Z" transform="matrix(6.188067, -0.309551, 0.285808, 5.177351, -650.825073, -666.719421)" style="fill: url(#gradient-1); white-space: pre;"/>
  <path d="M 113.144 148.201 Q 113.588 146.07 113.987 144.072 Q 114.135 143.213 114.305 142.296 Q 114.476 141.378 114.624 140.483 Q 114.772 139.587 114.89 138.766 Q 115.008 137.945 115.068 137.279 Q 115.26 137.293 115.393 137.293 Q 115.526 137.293 115.704 137.293 Q 115.911 137.293 116.207 137.286 Q 116.503 137.279 116.799 137.264 Q 117.095 137.249 117.436 137.234 Q 117.643 138.27 117.806 139.232 Q 117.968 140.076 118.139 140.964 Q 118.309 141.852 118.442 142.473 Q 118.501 142.177 118.575 141.785 Q 118.649 141.393 118.738 140.964 Q 118.827 140.535 118.908 140.098 Q 118.99 139.661 119.078 139.232 Q 119.286 138.27 119.508 137.249 L 121.313 137.027 Q 120.81 139.291 120.425 141.319 Q 120.248 142.192 120.077 143.088 Q 119.907 143.983 119.759 144.804 Q 119.611 145.626 119.508 146.329 Q 119.404 147.032 119.345 147.505 Q 119.3 147.505 118.997 147.572 Q 118.694 147.639 118.301 147.727 Q 117.909 147.816 117.517 147.905 Q 117.125 147.994 116.932 148.068 Q 116.844 146.884 116.74 145.818 Q 116.696 145.359 116.644 144.878 Q 116.592 144.397 116.533 143.953 Q 116.474 143.509 116.414 143.125 Q 116.355 142.74 116.296 142.459 Q 116.252 142.74 116.178 143.11 Q 116.104 143.48 116.03 143.894 Q 115.956 144.309 115.882 144.76 Q 115.808 145.211 115.719 145.626 Q 115.526 146.617 115.304 147.698 Z" transform="matrix(6.188067, -0.309551, 0.285808, 5.177351, -650.825073, -666.719421)" style="fill: url(#gradient-1); white-space: pre;"/>
  <path d="M 123.149 144.619 Q 122.719 144.619 122.29 144.649 Q 121.861 144.679 121.432 144.708 Q 121.891 142.888 122.327 141.082 Q 122.764 139.277 123.237 137.456 Q 123.519 137.412 123.881 137.367 Q 124.244 137.323 124.614 137.264 Q 124.984 137.205 125.332 137.16 Q 125.679 137.116 125.916 137.071 Q 125.117 138.936 124.458 140.823 Q 123.8 142.71 123.149 144.619 Z M 123.297 146.943 Q 123.297 147.224 123.171 147.505 Q 123.045 147.787 122.808 148.001 Q 122.571 148.216 122.216 148.342 Q 121.861 148.467 121.402 148.467 Q 121.091 148.467 120.84 148.349 Q 120.588 148.231 120.433 148.031 Q 120.277 147.831 120.189 147.579 Q 120.1 147.328 120.1 147.076 Q 120.1 146.795 120.189 146.536 Q 120.277 146.277 120.462 146.077 Q 120.647 145.877 120.921 145.744 Q 121.195 145.611 121.58 145.611 Q 122.438 145.611 122.867 146.018 Q 123.297 146.425 123.297 146.943 Z" transform="matrix(6.188067, -0.309551, 0.285808, 5.177351, -650.825073, -666.719421)" style="fill: url(#gradient-1); white-space: pre;"/>
</svg>